<svg xmlns="http://www.w3.org/2000/svg" xmlns:xlink="http://www.w3.org/1999/xlink" viewBox="0 0 56 67" fill="#fff" fill-rule="evenodd" stroke="#000" stroke-linecap="round" stroke-linejoin="round" width="300" height="300" font-family="Roboto" font-size="14px" text-anchor="middle"><defs><style type="text/css"></style></defs><use xlink:href="#A" x="1" y="1"></use><symbol id="A" overflow="visible"><path d="M15.834.47l2.88 5.14c-5.35 2.672-9.05 7.792-9.05 13.776h34.54c0-5.96-3.7-11.1-9.046-13.776l2.88-5.14s.206-.206-.206-.412c-.206-.206-.412.206-.412.206l-3.086 5.142a18.7 18.7 0 0 0-7.608-1.644 18.7 18.7 0 0 0-7.608 1.644l-3.08-5.14s-.204-.204-.412-.204a.72.72 0 0 0 .206.412zm2.9 10.072c.8 0 1.644.8 1.644 1.644s-.8 1.644-1.644 1.644a1.62 1.62 0 0 1-1.644-1.644 1.62 1.62 0 0 1 1.644-1.644zm16.448 0c.8 0 1.644.8 1.644 1.644s-.8 1.644-1.644 1.644a1.62 1.62 0 0 1-1.644-1.644 1.62 1.62 0 0 1 1.644-1.644zm-25.724 10.9v26.32c0 1.234 1.644 3.084 2.88 3.084h4.112v9.046c0 2.26 1.644 4.112 3.7 4.112s3.7-1.85 3.7-4.112v-9.05h5.96v9.046c0 2.26 1.644 4.112 3.7 4.112s3.7-1.85 3.7-4.112v-9.046h4.112c1.234 0 2.88-1.644 2.88-3.084V21.442zM3.7 20.826c2.056 0 3.7 1.85 3.7 4.112v15.626c0 2.26-1.644 4.112-3.7 4.112S0 42.826 0 40.564V24.938c0-2.26 1.644-4.112 3.7-4.112zm46.468 0c2.056 0 3.7 1.85 3.7 4.112v15.626c0 2.26-1.644 4.112-3.7 4.112s-3.7-1.85-3.7-4.112V24.938c0-2.26 1.644-4.112 3.7-4.112z" stroke="none" fill="#a4c639" fill-rule="nonzero"></path></symbol></svg>