<?xml version="1.0" encoding="utf-8"?>
<!-- Svg Vector Icons : http://www.onlinewebfonts.com/icon -->
<!DOCTYPE svg PUBLIC "-//W3C//DTD SVG 1.1//EN" "http://www.w3.org/Graphics/SVG/1.1/DTD/svg11.dtd">
<svg version="1.1" xmlns="http://www.w3.org/2000/svg" xmlns:xlink="http://www.w3.org/1999/xlink" x="0px" y="0px" viewBox="0 0 1000 1000" enable-background="new 0 0 1000 1000" xml:space="preserve">
<metadata> Svg Vector Icons : http://www.onlinewebfonts.com/icon </metadata>
<g><g><path fill="red" d="M461.2,418.7c-10.2,0.2-17.1,1.3-20.7,2.4v62.7c4.3,0.9,9.5,1.3,16.7,1.3c27.1,0.1,44-13,44-35.3C501.3,429.7,486.7,418.1,461.2,418.7z"/><path fill="red" d="M281.8,422.6c-8.9,0.2-14.9,1.2-18,2.2v58.4c3.7,0.9,8.3,1.2,14.5,1.2c23.5,0.1,38.1-12.2,38.1-32.9C316.5,433,303.9,422.1,281.8,422.6z"/><path fill="red" d="M607.8,905.4c1.3,0.1,2.6,0.2,3.9,0.2h296.7c34.7,0,62.9-28.2,62.9-62.9V154.9c0-34.7-28.2-62.9-62.9-62.9H611.7c-1.3,0-2.6,0.1-3.9,0.2V10L28.7,87.3v823.4L607.8,990V905.4z M607.8,128.3c1.3-0.2,2.6-0.4,3.9-0.4h296.7c14.9,0,27,12.1,27,27v687.8c0,14.9-12.1,27-27,27H611.7c-1.3,0-2.6-0.2-3.9-0.4V128.3z M155.3,551.1c11.9,0.4,25.4-2,33.3-5.2l6.1,34.1c-7.5,3.7-24.1,7.1-45.4,6.1C91,583.4,62.1,543,62.1,491.3c0-61.9,39.7-97.8,91.2-99.7c20.6-0.8,36.4,3.2,43.6,6.9l-8.3,34.7c-8.2-3.6-19.5-6.7-33.5-6.4c-30.8,0.7-54.2,21.1-54.2,62.2C100.8,526,120.7,550,155.3,551.1z M343.1,498.6c-15.6,14.7-38.4,20.9-64.5,20.4c-5.7-0.1-10.8-0.5-14.8-1.1v70.8l-42-2V394.8c12.9-2.8,31.3-5.2,57.7-6.1c27.3-1,47.1,3.7,60.6,14.2c13,9.9,21.9,26.8,21.9,47C362,470.1,355.3,487.2,343.1,498.6z M532.1,500.3c-18,15.7-44.4,22.4-74.5,21.9c-6.6-0.1-12.5-0.5-17.1-1.2v75.9l-48.3-2.2V389c14.9-3,36-5.6,66.4-6.7c31.4-1.1,54.4,3.9,70,15.1c15.1,10.7,25.4,28.8,25.4,50.6C553.9,469.6,546.2,488,532.1,500.3z"/><path fill="red" d="M787.1,562c28.8,0,54.1-5,67.5-10.9l-8.9-55.6c-11.4,4.5-25.3,7.4-43.2,7.4c-36.7,0-66.5-23.3-66.5-68c-0.5-39.7,25.3-68,65-68c19.9,0,33.3,3.5,42.2,7.4l11.9-56.1c-15.9-6-37.7-9.4-57.6-9.4c-90.3,0-139,58.1-139,129.1C658.5,514.3,708.6,562,787.1,562z"/><polygon fill="red" points="692.6,722.7 713.1,722.7 713.1,676.7 756.8,676.7 756.8,657 713.1,657 713.1,611.4 692.6,611.4 692.6,657 648.9,657 648.9,676.7 692.6,676.7 "/><polygon fill="red" points="837.7,611.4 817.2,611.4 817.2,657 773.5,657 773.5,676.7 817.2,676.7 817.2,722.7 837.7,722.7 837.7,676.7 881.4,676.7 881.4,657 837.7,657 "/></g><g></g><g></g><g></g><g></g><g></g><g></g><g></g><g></g><g></g><g></g><g></g><g></g><g></g><g></g><g></g></g>
</svg>
