<?xml version="1.0" encoding="utf-8"?>
<!-- Svg Vector Icons : http://www.onlinewebfonts.com/icon -->
<!DOCTYPE svg PUBLIC "-//W3C//DTD SVG 1.1//EN" "http://www.w3.org/Graphics/SVG/1.1/DTD/svg11.dtd">
<svg version="1.1" xmlns="http://www.w3.org/2000/svg" xmlns:xlink="http://www.w3.org/1999/xlink" x="0px" y="0px" viewBox="0 0 1000 1000" enable-background="new 0 0 1000 1000" xml:space="preserve">
<metadata> Svg Vector Icons : http://www.onlinewebfonts.com/icon </metadata>
<g><path d="M873.3,150c0-77.3-62.7-140-140-140s-140,62.7-140,140c0,56.1,33.1,104.1,80.7,126.4c-4.8,92.4-74.1,123.8-194.5,168.9c-50.8,19.1-106.7,40.2-154.5,72V276.9c48.1-22.2,81.7-70.5,81.7-126.9c0-77.3-62.6-140-140-140c-77.3,0-140,62.7-140,140c0,56.4,33.6,104.8,81.7,126.9v446.2c-48.1,22.1-81.7,70.5-81.7,126.9c0,77.3,62.7,140,140,140c77.4,0,140-62.7,140-140c0-56.1-33.1-104.1-80.7-126.4c4.8-92.3,74.1-123.8,194.5-168.9c118.4-44.5,264.9-99.8,270.7-277.4C839.5,255.2,873.3,206.6,873.3,150z M266.7,69.2c44.6,0,80.7,36.1,80.7,80.8c0,44.6-36.2,80.8-80.7,80.8c-44.6,0-80.7-36.2-80.7-80.8C185.9,105.3,222,69.2,266.7,69.2z M266.7,930.8c-44.7,0-80.8-36.2-80.8-80.8c0-44.7,36.1-80.8,80.8-80.8c44.6,0,80.7,36.1,80.7,80.8C347.4,894.6,311.2,930.8,266.7,930.8z M733.3,230.8c-44.7,0-80.8-36.2-80.8-80.8c0-44.7,36.1-80.8,80.8-80.8c44.6,0,80.7,36.1,80.7,80.8C814.1,194.6,777.9,230.8,733.3,230.8z"/></g>
</svg>