<?xml version="1.0" encoding="utf-8"?>
<!-- Svg Vector Icons : http://www.onlinewebfonts.com/icon -->
<!DOCTYPE svg PUBLIC "-//W3C//DTD SVG 1.1//EN" "http://www.w3.org/Graphics/SVG/1.1/DTD/svg11.dtd">
<svg version="1.1" xmlns="http://www.w3.org/2000/svg" xmlns:xlink="http://www.w3.org/1999/xlink" x="0px" y="0px" viewBox="0 0 1000 1000" enable-background="new 0 0 1000 1000" xml:space="preserve">
<metadata> Svg Vector Icons : http://www.onlinewebfonts.com/icon </metadata>
<g><g transform="translate(0.000000,511.000000) scale(0.100000,-0.100000)"><path d="M1490.8,4977.1c-126.5-38.8-261.1-159.1-318.3-283.6l-49-104.1V111.1v-4478.3l49-104c59.2-128.6,193.8-244.8,326.4-283.6c153-46.9,6849-46.9,7002.1,0c132.6,38.8,267.3,155,326.4,283.6l49,104V111.1v4478.3l-49,104.1c-59.2,128.5-193.8,244.8-326.4,283.6C8354.1,5022,1633.6,5020,1490.8,4977.1z M8382.7,4514c18.4-18.3,24.5-836.5,24.5-3560.2V-2582H5000H1592.8V953.8c0,2723.7,6.1,3541.9,24.5,3560.2C1652,4548.6,8348,4548.6,8382.7,4514z M5228.5-3328.7c46.9-32.7,106.1-100,134.6-151c100-185.7,20.4-440.7-169.3-538.6c-122.4-65.3-306-59.2-412.1,12.2c-128.5,83.6-179.5,183.6-179.5,346.8c0,116.3,8.2,146.9,61.2,224.4C4793.9-3249.1,5046.9-3200.1,5228.5-3328.7z"/><path d="M6183.3,3395.9c-734.5-110.2-1338.4-202-1340.4-202c-4.1-2.1-6.1-465.2-6.1-1032.4V1131.3h1397.6h1397.6v1234.3v1234.3l-55.1-2C7544.2,3595.8,6917.8,3506.1,6183.3,3395.9z"/><path d="M3414.7,2989.9l-1046.6-155.1v-850.8v-852.8H3429h1060.9v1009.9c0,554.9-6.1,1007.9-14.3,1007.9C4465.5,3147,3988,3075.6,3414.7,2989.9z"/><path d="M2372.2-46l6.1-852.8l520.3-75.5c285.6-40.8,761-110.2,1056.8-155l534.5-77.5V-201V804.8H3429H2368.1L2372.2-46z"/><path d="M4836.8-225.5v-1030.3l46.9-10.2c59.2-12.2,2697.2-397.9,2725.8-397.9c16.3,0,22.4,359.1,22.4,1234.3V804.8H6234.3H4836.8V-225.5z"/></g></g>
</svg>
